<svg xmlns:xlink="http://www.w3.org/1999/xlink" xmlns="http://www.w3.org/2000/svg" id="logo-bob-full_svg__Capa_1" data-name="Capa 1" viewBox="0 0 694 240" class="w-[116px] h-[40px]" width="694"  height="240" ><defs><style>.logo-bob-full_svg__cls-2,.logo-bob-full_svg__cls-3{stroke-width:0}.logo-bob-full_svg__cls-2{fill:#f4a800}.logo-bob-full_svg__cls-3{fill:#309292}</style></defs><path d="M668.11 73.71c2.79 1.19 5.28 2.09 7.63 3.29 9.58 4.88 14.72 12.95 16.3 23.39 1.78 11.78-.08 22.8-7.26 32.61-5.16 7.04-12.22 10.72-20.72 12.29-17 3.13-34.14 1.99-51.25 2.12-.16 0-.33-.2-.73-.47 6.32-6.69 12.6-13.33 18.88-19.98 1.2-1.27 2.51-2.47 3.62-3.81 2.87-3.47 6.02-5.93 10.83-6.76 6.26-1.07 9.58-6.5 9.44-13.42-.13-6.44-3.5-10.8-9.63-12.34-5.49-1.39-11.09-.73-16.65-.75-3.35 0-7.68-1.51-9.81.65-1.98 2.01-.5 6.29-.57 9.57-.09 4.33-.21 8.68.04 13 .19 3.23-.76 5.58-3.1 7.88-8.16 8.03-16.11 16.28-24.14 24.44-1.7 1.72-7.98 2.9-10.09 1.97-.55-.24-.79-.6-.81-1.16-.02-.72-.02-1.44-.02-2.17 0-43.86.03-87.71-.07-131.56 0-2.93.86-3.54 3.63-3.53 23.42.14 46.86-.37 70.26.28 32.44.89 39.38 34.39 28.37 52.49-2.52 4.15-5.87 7.42-10.11 9.78-1.24.69-2.48 1.35-4.03 2.19Zm-49.95-23.55c0 3.61.01 7.22 0 10.83 0 1.2-.06 2.37 1.66 2.28 7.31-.37 14.67.5 21.94-.48 7.29-.99 11.02-5.65 10.87-13.03-.15-7.07-4.18-11.41-11.41-12.22-6.99-.79-14.02-.23-21.02-.43-1.69-.05-2.09.69-2.06 2.23.08 3.61.03 7.22.03 10.83ZM386.77 73.87c1.58.63 3.08 1.21 4.56 1.81 10.74 4.38 17.13 12.37 18.99 23.73 2.3 14.06-.18 26.91-10.55 37.48-4.35 4.44-9.7 6.72-15.73 8.01-17.64 3.76-35.48 2.19-54.06 2.63 4.97-5.27 9.4-9.96 13.82-14.65 2.9-3.08 5.85-6.11 8.71-9.23 3.19-3.49 6.3-6.49 11.55-7.34 6.34-1.03 9.49-6.65 9.21-13.85-.25-6.35-3.77-10.64-10.07-11.98-6.53-1.38-13.17-.62-19.76-.72-6.81-.1-6.81-.02-6.81 6.72 0 6.3-.03 12.59.03 18.89.01 1.53-.32 2.71-1.46 3.85-8.86 8.94-17.66 17.95-26.48 26.93-1.1 1.12-8.09 1.91-9.45 1.14-.54-.31-.62-.77-.63-1.29-.02-.72-.01-1.44-.01-2.17 0-43.76.03-87.52-.06-131.28 0-2.78.62-3.63 3.54-3.61 23.53.16 47.07-.12 70.59.28 12.88.22 23.29 5.85 28.99 17.83 5.84 12.27 5.36 24.58-2.04 36.28-2.43 3.84-5.95 6.53-9.92 8.66-.97.52-2.15.73-2.96 1.87Zm-50.13-23.89c0 3.61.09 7.23-.04 10.83-.06 1.86.5 2.6 2.44 2.51 2.78-.13 5.57-.03 8.36-.04 4.33 0 8.67.19 12.98-.48 4.32-.67 7.81-2.56 9.61-6.83 3.79-8.97-.81-17.22-10.42-18.45-6.98-.89-14.02-.21-21.03-.42-1.52-.05-1.95.62-1.92 2.04.06 3.61.02 7.22.02 10.84M560.65 77.33c-.26 13.07-1.5 25.98-7.3 37.96-8.49 17.54-22.43 28.11-41.51 31.91-12.51 2.49-25.03 2.18-37.49-.24-21.12-4.1-35.7-16.55-43.04-36.44-8.53-23.12-8.36-46.69 1.67-69.37 9.2-20.81 26.52-31.16 48.65-33.83 12.93-1.56 25.81-.93 38.22 3.31 22.09 7.57 34.26 23.73 38.89 46.09 1.4 6.78 2.02 13.67 1.91 20.61m-36.13-1.21c-.11-5.56-.52-11.83-2.28-17.92-3.86-13.3-14.35-20.87-28.72-20.74-14 .13-24.06 7.79-27.65 21.18-2.76 10.32-2.87 20.78-1.41 31.29.85 6.08 2.38 12 6.22 16.94 7.71 9.95 18.28 12.08 29.97 10.2 11.79-1.89 18.75-9.16 21.6-20.6 1.6-6.44 2.02-13.02 2.26-20.36ZM324.87 236.27c-4.59 0-8.97-.7-13.15-2.11-4.18-1.4-7.48-3.22-9.89-5.46l3.18-6.71c2.29 2.01 5.21 3.67 8.77 4.99 3.55 1.32 7.25 1.98 11.09 1.98 3.5 0 6.33-.4 8.51-1.2s3.78-1.9 4.81-3.31c1.03-1.4 1.55-2.99 1.55-4.77 0-2.06-.67-3.72-2.02-4.99-1.35-1.26-3.09-2.28-5.24-3.05s-4.51-1.45-7.09-2.02-5.17-1.25-7.78-2.02q-3.915-1.155-7.14-2.97c-2.15-1.2-3.88-2.82-5.2-4.86-1.32-2.03-1.98-4.66-1.98-7.87s.82-5.94 2.45-8.55 4.15-4.7 7.57-6.28c3.41-1.58 7.75-2.36 13.02-2.36 3.5 0 6.96.46 10.4 1.38s6.42 2.24 8.94 3.95l-2.84 6.88c-2.58-1.72-5.3-2.97-8.17-3.74s-5.65-1.16-8.34-1.16q-5.07 0-8.34 1.29c-2.18.86-3.77 2.01-4.77 3.44s-1.5 3.04-1.5 4.81c0 2.12.67 3.81 2.02 5.07s3.09 2.27 5.24 3.01c2.15.75 4.51 1.42 7.09 2.02s5.17 1.28 7.78 2.02c2.61.75 4.99 1.72 7.14 2.92s3.88 2.81 5.2 4.81q1.98 3.015 1.98 7.74c0 4.725-.83 5.86-2.49 8.47s-4.23 4.7-7.69 6.28c-3.47 1.58-7.84 2.36-13.11 2.36ZM378.69 236.1c-3.9 0-7.32-.72-10.27-2.15s-5.24-3.62-6.88-6.58c-1.63-2.95-2.45-6.66-2.45-11.13v-26.22h8.25v25.27c0 4.47 1.07 7.82 3.22 10.06s5.17 3.35 9.07 3.35c2.87 0 5.36-.59 7.48-1.76s3.75-2.89 4.9-5.16c1.15-2.26 1.72-5 1.72-8.21v-23.55h8.25v45.56h-7.82v-12.29l1.29 3.27c-1.49 3.04-3.73 5.39-6.71 7.05s-6.33 2.49-10.06 2.49ZM417.71 235.58v-63.79h8.25v30.35l-.86 10.57.52 10.57v12.29h-7.91Zm24.16.52c-3.9 0-7.41-.87-10.53-2.62s-5.59-4.34-7.39-7.78c-1.81-3.44-2.71-7.74-2.71-12.89s.93-9.46 2.79-12.89c1.86-3.44 4.35-6.02 7.48-7.74 3.12-1.72 6.58-2.58 10.36-2.58 4.47 0 8.42.98 11.86 2.92 3.44 1.95 6.16 4.66 8.17 8.12 2.01 3.47 3.01 7.52 3.01 12.16s-1 8.71-3.01 12.21-4.73 6.22-8.17 8.17-7.39 2.92-11.86 2.92m-.69-7.22c2.92 0 5.54-.66 7.87-1.98 2.32-1.32 4.15-3.19 5.5-5.63s2.02-5.26 2.02-8.47-.67-6.09-2.02-8.47-3.18-4.23-5.5-5.54c-2.32-1.32-4.94-1.98-7.87-1.98s-5.46.66-7.78 1.98-4.16 3.17-5.5 5.54c-1.35 2.38-2.02 5.2-2.02 8.47s.67 6.03 2.02 8.47 3.18 4.31 5.5 5.63 4.91 1.98 7.78 1.98M489.24 236.1c-3.38 0-6.35-.57-8.9-1.72s-4.51-2.74-5.89-4.77-2.06-4.34-2.06-6.92.59-4.7 1.76-6.71 3.09-3.61 5.76-4.81 6.26-1.81 10.79-1.81h14.44v5.93h-14.1c-4.13 0-6.91.69-8.34 2.06-1.43 1.38-2.15 3.04-2.15 4.99 0 2.24.89 4.03 2.66 5.37 1.78 1.35 4.24 2.02 7.39 2.02s5.8-.69 8.12-2.06c2.32-1.38 4-3.38 5.03-6.02l1.63 5.67c-1.09 2.69-3.01 4.83-5.76 6.4-2.75 1.58-6.22 2.36-10.4 2.36Zm14.95-.52v-9.63l-.43-1.81v-16.42c0-3.5-1.02-6.2-3.05-8.12-2.04-1.92-5.09-2.88-9.16-2.88-2.69 0-5.33.44-7.91 1.33s-4.76 2.08-6.53 3.57l-3.44-6.19c2.35-1.89 5.17-3.34 8.47-4.34 3.29-1 6.75-1.5 10.36-1.5 6.25 0 11.06 1.52 14.44 4.56s5.07 7.68 5.07 13.93v27.51h-7.82ZM540.39 236.1c-3.78 0-7.38-.52-10.79-1.55q-5.115-1.545-8.04-3.78l3.44-6.53c1.95 1.32 4.35 2.44 7.22 3.35 2.87.92 5.79 1.38 8.77 1.38 3.84 0 6.6-.54 8.3-1.63 1.69-1.09 2.54-2.61 2.54-4.56 0-1.43-.52-2.55-1.55-3.35s-2.39-1.4-4.08-1.81c-1.69-.4-3.57-.76-5.63-1.07s-4.13-.72-6.19-1.2c-2.06-.49-3.95-1.17-5.67-2.06s-3.09-2.12-4.13-3.7c-1.03-1.58-1.55-3.68-1.55-6.32s.77-5.16 2.32-7.22 3.74-3.65 6.58-4.77 6.2-1.68 10.1-1.68c2.98 0 6 .36 9.07 1.07 3.07.72 5.57 1.73 7.52 3.05l-3.52 6.53c-2.06-1.38-4.21-2.32-6.45-2.84a29.5 29.5 0 0 0-6.71-.77c-3.61 0-6.31.59-8.08 1.76-1.78 1.18-2.67 2.68-2.67 4.51q0 2.325 1.59 3.57c1.06.83 2.44 1.48 4.13 1.93 1.69.46 3.57.85 5.63 1.16 2.06.32 4.13.72 6.19 1.2 2.06.49 3.94 1.16 5.63 2.02s3.07 2.06 4.13 3.61 1.59 3.61 1.59 6.19c0 2.75-.8 5.13-2.41 7.14s-3.87 3.57-6.79 4.69-6.42 1.68-10.49 1.68M563.85 196.81v-6.79h29.06v6.79zm22.18 39.29c-4.59 0-8.14-1.23-10.66-3.7-2.52-2.46-3.78-5.99-3.78-10.57v-41.78h8.25v41.44c0 2.47.62 4.36 1.85 5.67 1.23 1.32 2.99 1.98 5.29 1.98 2.58 0 4.73-.72 6.45-2.15l2.58 5.93c-1.26 1.09-2.77 1.89-4.51 2.41-1.75.52-3.57.77-5.46.77ZM619.3 236.1c-3.38 0-6.35-.57-8.9-1.72s-4.51-2.74-5.89-4.77-2.06-4.34-2.06-6.92.59-4.7 1.76-6.71 3.09-3.61 5.76-4.81 6.26-1.81 10.79-1.81h14.44v5.93h-14.1c-4.13 0-6.91.69-8.34 2.06-1.43 1.38-2.15 3.04-2.15 4.99 0 2.24.89 4.03 2.66 5.37 1.78 1.35 4.24 2.02 7.39 2.02s5.8-.69 8.12-2.06c2.32-1.38 4-3.38 5.03-6.02l1.63 5.67c-1.09 2.69-3.01 4.83-5.76 6.4-2.75 1.58-6.22 2.36-10.4 2.36Zm14.96-.52v-9.63l-.43-1.81v-16.42c0-3.5-1.02-6.2-3.05-8.12-2.04-1.92-5.09-2.88-9.16-2.88-2.69 0-5.33.44-7.91 1.33s-4.76 2.08-6.53 3.57l-3.44-6.19c2.35-1.89 5.17-3.34 8.47-4.34 3.29-1 6.75-1.5 10.36-1.5 6.25 0 11.06 1.52 14.44 4.56s5.07 7.68 5.07 13.93v27.51h-7.82ZM670.45 236.1c-3.78 0-7.38-.52-10.79-1.55q-5.115-1.545-8.04-3.78l3.44-6.53c1.95 1.32 4.35 2.44 7.22 3.35 2.87.92 5.79 1.38 8.77 1.38 3.84 0 6.6-.54 8.3-1.63 1.69-1.09 2.54-2.61 2.54-4.56 0-1.43-.52-2.55-1.55-3.35s-2.39-1.4-4.08-1.81c-1.69-.4-3.57-.76-5.63-1.07s-4.13-.72-6.19-1.2c-2.06-.49-3.95-1.17-5.67-2.06s-3.09-2.12-4.13-3.7c-1.03-1.58-1.55-3.68-1.55-6.32s.77-5.16 2.32-7.22 3.74-3.65 6.58-4.77 6.2-1.68 10.1-1.68c2.98 0 6 .36 9.07 1.07 3.07.72 5.57 1.73 7.52 3.05l-3.52 6.53c-2.06-1.38-4.21-2.32-6.45-2.84s-4.47-.77-6.71-.77c-3.61 0-6.31.59-8.08 1.76-1.78 1.18-2.67 2.68-2.67 4.51q0 2.325 1.59 3.57c1.06.83 2.44 1.48 4.13 1.93 1.69.46 3.57.85 5.63 1.16 2.06.32 4.13.72 6.19 1.2 2.06.49 3.94 1.16 5.63 2.02s3.07 2.06 4.13 3.61 1.59 3.61 1.59 6.19c0 2.75-.8 5.13-2.41 7.14s-3.87 3.57-6.79 4.69-6.42 1.68-10.49 1.68" class="logo-bob-full_svg__cls-3" fill="#309292" stroke-width="0px"></path><path d="M210.36 37.21c-1.73-1.75-3.5-3.46-5.34-5.1-2.45-2.18-4.98-4.27-7.59-6.25-2.62-1.99-5.31-3.87-8.08-5.64-2.78-1.78-5.62-3.44-8.53-4.98a119 119 0 0 0-8.95-4.29 121.519 121.519 0 0 0-19.02-6.38 122 122 0 0 0-20.26-3.19c-2.95-.21-5.91-.32-8.87-.32C56.13 1.06 1.34 56.09 1.34 123.98c0 14.04 2.38 27.52 6.69 40.09 1.2 4.9 3.2 10.9 6.54 16.67 0 0-.37-1.07-.92-2.99-3.61-12.7-15.08-63.56 20.03-101.04 43.9-41.26 87.95-38.01 87.95-38.01V9.69s41.65 7.24 73.41 64.92c.24-.43 2.75-2.14 2.98-2.57.63-1.15.61-2.33 1.24-3.48.9-1.64 1.71-3.28 2.61-4.93 1.05-1.92 1.64-3.67 2.69-5.59 1.08-1.96 1.95-3.67 3.02-5.63.98-1.79 1.67-3.43 2.65-5.22.76-1.39.77-3.45 1.53-4.85.47-.86.29-2.02.76-2.89-.72-.76-1.45-1.51-2.18-2.25Z" class="logo-bob-full_svg__cls-2" fill="#F4A800" stroke-width="0px"></path><circle cx="137.78" cy="74.57" r="23.09" class="logo-bob-full_svg__cls-2" fill="#F4A800" stroke-width="0px"></circle><path d="M231.29 72.29c-2.87-8.96-7.01-17.44-12.45-25.05a81 81 0 0 0-6.37-7.85c-6.72 15.92-40.61 90.16-91.35 98.63v-24.67c-49.92 17.2-68.71 62.48-68.71 62.48s6.48 15.81 21.91 32.35c10.87 11.65 26.17 23.66 46.79 30.76v-28.27c0 .23 18.75-3.03 20.46-3.44 6.65-1.6 13.19-3.66 19.54-6.18 12.15-4.82 23.66-11.33 33.9-19.47 15.74-12.5 28.33-29.14 35.2-48.09 7.13-19.67 7.46-41.26 1.07-61.19ZM105.34 202c-12.75 0-23.09-10.34-23.09-23.09s10.34-23.09 23.09-23.09 23.09 10.34 23.09 23.09S118.09 202 105.34 202" style="" fill="#309090" stroke-width="0px"></path></svg>